<svg width="957" height="346" viewBox="0 0 957 346" fill="none" xmlns="http://www.w3.org/2000/svg">
<path d="M339 171C339 265.441 263.112 342 169.5 342C75.8877 342 0 265.441 0 171C0 76.5593 75.8877 0 169.5 0C263.112 0 339 76.5593 339 171Z" fill="#120F08"/>
<path d="M292.5 108.398C294.397 108.372 295.957 109.888 295.983 111.785C296.248 130.757 281.083 146.352 262.111 146.617L181.008 147.749C179.11 147.776 177.551 146.259 177.525 144.362C177.26 125.39 192.425 109.796 211.396 109.531L292.5 108.398Z" fill="white"/>
<path d="M46 113.091C46 111.384 47.3838 110 49.0909 110C66.1615 110 80 123.838 80 140.909V238.909C80 240.616 78.6162 242 76.9091 242C59.8385 242 46 228.162 46 211.091V113.091Z" fill="white"/>
<path d="M88 168C88 159.716 94.7157 153 103 153C111.284 153 118 159.716 118 168V219C118 227.284 111.284 234 103 234C94.7157 234 88 227.284 88 219V168Z" fill="white"/>
<path d="M292.5 203.048C294.397 203.021 295.957 204.538 295.983 206.435C296.248 225.407 281.083 241.002 262.111 241.267L181.008 242.399C179.11 242.426 177.551 240.909 177.525 239.012C177.26 220.04 192.425 204.446 211.396 204.181L292.5 203.048Z" fill="white"/>
<path d="M268.677 157.657C286.504 157.495 301.087 171.816 301.249 189.642C301.265 191.425 299.833 192.883 298.05 192.899L209.278 193.707C191.452 193.869 176.869 179.549 176.707 161.722C176.69 159.939 178.122 158.481 179.905 158.465L268.677 157.657Z" fill="white"/>
<path d="M126 137.909C126 120.838 139.838 107 156.909 107C158.616 107 160 108.384 160 110.091V211.091C160 228.162 146.162 242 129.091 242C127.384 242 126 240.616 126 238.909V137.909Z" fill="white"/>
<path d="M462.641 81.3652L442.475 157H424.555L411.664 107.684C410.98 105.014 410.574 102.231 410.443 99.334H410.248C409.923 102.719 409.467 105.503 408.881 107.684L395.697 157H377.094L356.928 81.3652H374.604L385.834 132.635C386.322 134.881 386.664 137.713 386.859 141.131H387.201C387.364 138.462 387.868 135.548 388.715 132.391L402.777 81.3652H419.916L432.709 133.025C433.23 135.076 433.637 137.745 433.93 141.033H434.174C434.304 138.201 434.678 135.434 435.297 132.732L446.283 81.3652H462.641ZM517.133 157H472.357V81.3652H515.375V94.5488H488.471V112.371H513.471V125.506H488.471V143.816H517.133V157ZM595.209 157H577.631L571.967 139.666H544.477L538.91 157H521.43L549.115 81.3652H568.061L595.209 157ZM568.158 127.215L559.564 100.994C559.011 99.334 558.62 97.1367 558.393 94.4023H557.953C557.758 96.6159 557.318 98.748 556.635 100.799L547.992 127.215H568.158ZM667.182 157H648.627L636.762 137.322C634.32 133.253 632.318 130.633 630.756 129.461C629.193 128.289 627.533 127.703 625.775 127.703H620.893V157H604.779V81.3652H631.293C649.294 81.3652 658.295 88.2012 658.295 101.873C658.295 107.016 656.781 111.427 653.754 115.105C650.759 118.784 646.625 121.372 641.352 122.869V123.064C644.835 124.236 648.692 128.077 652.924 134.588L667.182 157ZM620.893 93.6211V115.398H628.803C632.579 115.398 635.606 114.308 637.885 112.127C640.196 109.913 641.352 107.163 641.352 103.875C641.352 97.0391 637.266 93.6211 629.096 93.6211H620.893ZM361.273 269.957C367.361 275.003 374.278 277.525 382.025 277.525C386.42 277.525 389.724 276.777 391.938 275.279C394.151 273.749 395.258 271.796 395.258 269.42C395.258 267.369 394.379 265.432 392.621 263.609C390.863 261.786 386.225 259.312 378.705 256.188C366.889 251.174 360.98 243.883 360.98 234.312C360.98 227.281 363.65 221.829 368.988 217.955C374.359 214.049 381.456 212.096 390.277 212.096C397.667 212.096 403.868 213.056 408.881 214.977V230.113C403.803 226.663 397.862 224.938 391.059 224.938C387.087 224.938 383.913 225.67 381.537 227.135C379.161 228.567 377.973 230.504 377.973 232.945C377.973 234.898 378.786 236.705 380.414 238.365C382.042 239.993 386.062 242.206 392.475 245.006C399.994 248.229 405.154 251.63 407.953 255.211C410.785 258.792 412.201 263.056 412.201 268.004C412.201 275.263 409.63 280.797 404.486 284.605C399.343 288.414 392.035 290.318 382.562 290.318C373.904 290.318 366.807 288.919 361.273 286.119V269.957ZM490.521 289H472.943L467.279 271.666H439.789L434.223 289H416.742L444.428 213.365H463.373L490.521 289ZM463.471 259.215L454.877 232.994C454.324 231.334 453.933 229.137 453.705 226.402H453.266C453.07 228.616 452.631 230.748 451.947 232.799L443.305 259.215H463.471ZM567.328 289H550.824L518.793 240.074C517.133 237.535 515.928 235.484 515.18 233.922H514.936C515.229 236.526 515.375 240.546 515.375 245.982V289H500.092V213.365H517.67L548.529 260.924C550.58 264.081 551.833 266.083 552.289 266.93H552.533C552.208 265.107 552.045 261.624 552.045 256.48V213.365H567.328V289ZM584.955 289V213.365H611.078C637.934 213.365 651.361 225.654 651.361 250.23C651.361 261.917 647.602 271.308 640.082 278.404C632.562 285.468 622.862 289 610.98 289H584.955ZM601.068 226.549V275.816H609.857C617.507 275.816 623.513 273.538 627.875 268.98C632.237 264.423 634.418 258.255 634.418 250.475C634.418 242.955 632.139 237.096 627.582 232.896C623.025 228.665 617.1 226.549 609.809 226.549H601.068ZM729.779 289H712.201L706.537 271.666H679.047L673.48 289H656L683.686 213.365H702.631L729.779 289ZM702.729 259.215L694.135 232.994C693.581 231.334 693.191 229.137 692.963 226.402H692.523C692.328 228.616 691.889 230.748 691.205 232.799L682.562 259.215H702.729ZM806.586 289H790.082L758.051 240.074C756.391 237.535 755.186 235.484 754.438 233.922H754.193C754.486 236.526 754.633 240.546 754.633 245.982V289H739.35V213.365H756.928L787.787 260.924C789.838 264.081 791.091 266.083 791.547 266.93H791.791C791.465 265.107 791.303 261.624 791.303 256.48V213.365H806.586V289ZM885.688 283.922C878.298 288.186 869.216 290.318 858.441 290.318C846.397 290.318 836.892 286.933 829.926 280.162C822.96 273.391 819.477 264.13 819.477 252.379C819.477 240.465 823.301 230.781 830.951 223.326C838.633 215.839 848.741 212.096 861.273 212.096C869.346 212.096 876.394 213.235 882.416 215.514V230.797C876.557 227.379 869.395 225.67 860.932 225.67C853.64 225.67 847.732 228.046 843.207 232.799C838.682 237.551 836.42 243.818 836.42 251.598C836.42 259.508 838.454 265.676 842.523 270.104C846.625 274.531 852.208 276.744 859.271 276.744C863.471 276.744 866.905 276.093 869.574 274.791V259.264H854.291V246.324H885.688V283.922Z" fill="#120F08"/>
</svg>
